<svg t="1688397137799" class="icon" viewBox="0 0 1024 1024" version="1.1" xmlns="http://www.w3.org/2000/svg" p-id="2252" width="200" height="200"><path d="M719.84 609.59V604.58h-0.5c-2.42-15.24-15.51-26.92-31.43-26.92H368.58c-15.92 0-29.01 11.68-31.43 26.92h-0.5V620c0 17.64 14.29 31.93 31.93 31.93h319.33c17.63 0 31.93-14.29 31.93-31.93v-10.41z" fill="#44BDDC" opacity=".8" p-id="2253"></path><path d="M90.51 188.3m-25.99 0a25.99 25.99 0 1 0 51.98 0 25.99 25.99 0 1 0-51.98 0Z" fill="#4D73B6" opacity=".8" p-id="2254"></path><path d="M135.99 90.43m-25.99 0a25.99 25.99 0 1 0 51.98 0 25.99 25.99 0 1 0-51.98 0Z" fill="#44BDDC" opacity=".8" p-id="2255"></path><path d="M933.49 135.91m-25.99 0a25.99 25.99 0 1 0 51.98 0 25.99 25.99 0 1 0-51.98 0Z" fill="#4D73B6" opacity=".8" p-id="2256"></path><path d="M817.67 959.56H238.82c-35.47 0-64.32-28.86-64.32-64.32V219.9c0-35.46 28.85-64.32 64.32-64.32h578.86c35.48 0 64.32 28.86 64.32 64.32v675.34c-0.01 35.46-28.85 64.32-64.33 64.32zM238.82 219.9v675.34h578.91l-0.05-675.34H238.82z m0 0" fill="#3D6AB2" opacity=".8" p-id="2257"></path><path d="M689.04 492.98H367.45c-17.76 0-32.16-14.4-32.16-32.15 0-17.77 14.4-32.16 32.16-32.16h321.58c17.76 0 32.16 14.4 32.16 32.16 0.01 17.75-14.39 32.15-32.15 32.15z m0 0M872.43 196.33c0 18.09-14.67 32.76-32.77 32.76s-32.77-14.67-32.77-32.76c0-18.1 14.67-32.77 32.77-32.77 18.1 0.01 32.77 14.67 32.77 32.77zM249.39 196.33c0 18.09-14.67 32.76-32.77 32.76s-32.77-14.67-32.77-32.76c0-18.1 14.67-32.77 32.77-32.77 18.1 0.01 32.77 14.67 32.77 32.77zM872.43 919.66c0 18.09-14.67 32.76-32.77 32.76s-32.77-14.67-32.77-32.76c0-18.1 14.67-32.77 32.77-32.77s32.77 14.67 32.77 32.77zM249.39 919.66c0 18.09-14.67 32.76-32.77 32.76s-32.77-14.67-32.77-32.76c0-18.1 14.67-32.77 32.77-32.77s32.77 14.67 32.77 32.77z" fill="#3D6AB2" opacity=".8" p-id="2258"></path></svg>