<svg t="1688397209259" class="icon" viewBox="0 0 1024 1024" version="1.1" xmlns="http://www.w3.org/2000/svg" p-id="2576" width="200" height="200"><path d="M735.76 859.41c-0.89 0-1.76-0.04-2.64-0.12l-498.1-0.1c-14.86 0-28.82-5.79-39.32-16.31-10.5-10.5-16.27-24.48-16.26-39.33l0.2-308.44c0.02-27.88 20.91-51.58 48.57-55.12 78.97-10.13 141.71-27.73 163.72-45.92 34.76-28.7 65.22-85.17 65.22-120.85 0-60.91 47.69-108.61 108.55-108.61 49.16 0 91.49 32.43 104.56 79.44 0.72 1.62 1.27 3.31 1.64 5.03 5.12 23.25 7.71 46.62 7.71 69.48 0 23.09-2.46 45.94-7.33 68.29l118.44 0.1c2.43 0 4.73 0.16 6.98 0.48 36.17 2.05 68.88 21.38 87.77 51.96 11.97 18.76 17.68 40.94 16.39 63.97a55.39 55.39 0 0 1-1.87 16.51L840.21 783.9c-1.75 6.58-4.08 11.92-7.14 16.67-9.09 17.28-22.35 31.72-38.48 41.82-17.5 11.1-37.89 17.02-58.83 17.02zM565.71 220.18c-30.19 0-52.97 22.79-52.97 53.02 0 58.32-43.43 129.04-85.4 163.71-39.74 32.84-126.39 49.78-192.05 58.21l-0.26 308.47 500.73 0.11c0.72 0 1.42 0.02 2.13 0.08a54.42 54.42 0 0 0 27.06-8.43c8.17-5.12 14.8-12.52 19.34-21.48a27.8 27.8 0 0 1 2.13-3.55l59.65-263.85c-0.12-1.41 0.13-3.85 0.23-5.26 0.86-11.68-1.88-22.85-7.9-32.3-9.69-15.67-26.32-25.29-44.71-26.05-1.3-0.05-2.59-0.19-3.87-0.43l-154.21-0.04a27.836 27.836 0 0 1-22.64-11.7 27.833 27.833 0 0 1-3.58-25.23c9.72-27.93 14.65-57.17 14.65-86.92 0-17.54-1.87-35.51-5.55-53.51-0.48-1.21-0.87-2.46-1.16-3.74-5.61-24.19-26.83-41.11-51.62-41.11z m0 0" fill="#3D6AB2" opacity=".8" p-id="2577"></path><path d="M86.4 449.89m-22.59 0a22.59 22.59 0 1 0 45.18 0 22.59 22.59 0 1 0-45.18 0Z" fill="#4D73B6" opacity=".8" p-id="2578"></path><path d="M125.93 364.83m-22.59 0a22.59 22.59 0 1 0 45.18 0 22.59 22.59 0 1 0-45.18 0Z" fill="#44BDDC" opacity=".8" p-id="2579"></path><path d="M937.6 404.35m-22.59 0a22.59 22.59 0 1 0 45.18 0 22.59 22.59 0 1 0-45.18 0Z" fill="#4D73B6" opacity=".8" p-id="2580"></path><path d="M317.43 495.7h-4.36v0.44c-13.24 2.1-23.4 13.48-23.4 27.32v243.65c0 13.83 10.15 25.21 23.4 27.32v0.44H326.47c15.33 0 27.75-12.42 27.75-27.75V523.46c0-15.32-12.42-27.76-27.75-27.76h-9.04z" fill="#44BDDC" opacity=".8" p-id="2581"></path><path d="M242.63 475.7c0 15.94-12.16 28.86-27.15 28.86-15 0-27.16-12.93-27.16-28.86 0-15.94 12.15-28.87 27.16-28.87 14.99 0 27.15 12.92 27.15 28.87zM242.63 823.73c0 15.94-12.16 28.86-27.15 28.86-15 0-27.16-12.93-27.16-28.86 0-15.94 12.15-28.87 27.16-28.87 14.99 0 27.15 12.93 27.15 28.87z" fill="#3D6AB2" opacity=".8" p-id="2582"></path></svg>