<svg t="1688394366309" class="icon" viewBox="0 0 1024 1024" version="1.1" xmlns="http://www.w3.org/2000/svg" p-id="1297" width="200" height="200"><path d="M654.2 904.27c-13.08 0-26.1-3.98-37.26-11.81l-288.7-201.82H215.8c-35.82 0-64.96-29.14-64.96-64.96V398.33c0-35.82 29.14-64.96 64.96-64.96h112.37L344.02 323l272.91-191.45c19.95-13.97 45.73-15.68 67.29-4.45 21.58 11.22 34.98 33.3 34.98 57.62v654.55c0 24.32-13.4 46.39-35 57.62-9.46 4.93-19.76 7.38-30 7.38zM215.8 398.33v227.35h122.04c6.29 0 12.43 1.82 17.7 5.25l24.11 15.67 274.6 192.68V184.72l-273.8 192.05-24.83 16.26a32.46 32.46 0 0 1-17.78 5.3H215.8z m0 0" fill="#3D6AB2" opacity=".8" p-id="1298"></path><path d="M88.94 289.36m-25.12 0a25.12 25.12 0 1 0 50.24 0 25.12 25.12 0 1 0-50.24 0Z" fill="#4D73B6" opacity=".8" p-id="1299"></path><path d="M132.91 194.74m-25.12 0a25.12 25.12 0 1 0 50.24 0 25.12 25.12 0 1 0-50.24 0Z" fill="#44BDDC" opacity=".8" p-id="1300"></path><path d="M803.41 175.89m-25.12 0a25.12 25.12 0 1 0 50.24 0 25.12 25.12 0 1 0-50.24 0Z" fill="#4D73B6" opacity=".8" p-id="1301"></path><path d="M916.29 357.5c84.76 129.15 28.34 268.7-15.67 326.77-12.57 16.59-36.21 19.85-52.81 7.28-16.55-12.55-19.82-36.12-7.34-52.71 4.22-5.65 96.85-132.95 2.53-254.34-12.78-16.43-9.76-40.12 6.69-52.88 16.45-12.76 40.12-9.76 52.87 6.68 4.94 6.37 9.52 12.78 13.73 19.2z" fill="#44BDDC" p-id="1302"></path><path d="M226 377.31c0 18.06-15.03 32.72-33.56 32.72-18.55 0-33.57-14.65-33.57-32.72s15.02-32.71 33.57-32.71c18.53-0.01 33.56 14.64 33.56 32.71zM226 648.14c0 18.06-15.03 32.72-33.56 32.72-18.55 0-33.57-14.65-33.57-32.72s15.02-32.71 33.57-32.71c18.53 0 33.56 14.64 33.56 32.71zM706.5 866.84c0 18.06-15.03 32.72-33.56 32.72-18.55 0-33.57-14.65-33.57-32.72s15.02-32.71 33.57-32.71c18.53-0.01 33.56 14.64 33.56 32.71zM701.79 156.29c0 18.06-15.03 32.72-33.56 32.72-18.55 0-33.57-14.65-33.57-32.72s15.02-32.71 33.57-32.71c18.53 0 33.56 14.64 33.56 32.71z" fill="#3D6AB2" opacity=".8" p-id="1303"></path></svg>