<svg t="1688396902354" class="icon" viewBox="0 0 1024 1024" version="1.1" xmlns="http://www.w3.org/2000/svg" p-id="2085" width="200" height="200"><path d="M89.85 269.31m-26.03 0a26.03 26.03 0 1 0 52.06 0 26.03 26.03 0 1 0-52.06 0Z" fill="#4D73B6" opacity=".8" p-id="2086"></path><path d="M135.4 171.28m-26.03 0a26.03 26.03 0 1 0 52.06 0 26.03 26.03 0 1 0-52.06 0Z" fill="#44BDDC" opacity=".8" p-id="2087"></path><path d="M934.15 216.83m-26.03 0a26.03 26.03 0 1 0 52.06 0 26.03 26.03 0 1 0-52.06 0Z" fill="#4D73B6" opacity=".8" p-id="2088"></path><path d="M520.03 285.78H515.01v0.51c-15.26 2.42-26.96 15.54-26.96 31.48v196.21c0 15.94 11.7 29.05 26.96 31.48v0.5h15.44c17.67 0 31.98-14.31 31.98-31.98V317.77c0-17.66-14.32-31.99-31.98-31.99h-10.42z" fill="#44BDDC" opacity=".8" p-id="2089"></path><path d="M698.65 663.37c0-0.01 0.01-0.01 0.02-0.03l3.37-3.67-0.37-0.34c8.54-12.88 6.79-30.37-4.95-41.15L552.21 485.46c-11.74-10.78-29.31-11.03-41.43-1.43l-0.37-0.34-3.39 3.7-6.04 6.58-1.01 1.1c-11.95 13.01-11.09 33.23 1.92 45.18l144.52 132.71c13.01 11.95 33.25 11.1 45.19-1.92l1.01-1.09 6.04-6.58z" fill="#44BDDC" opacity=".8" p-id="2090"></path><path d="M525.01 927.77c-229.26 0-415.77-186.51-415.77-415.77S295.75 96.23 525.01 96.23 940.78 282.75 940.78 512c0.01 229.26-186.5 415.77-415.77 415.77z m0-767.57c-193.99 0-351.8 157.82-351.8 351.81 0 193.98 157.82 351.8 351.8 351.8C719 863.8 876.82 705.99 876.82 512S719 160.2 525.01 160.2z m0 0" fill="#3D6AB2" opacity=".8" p-id="2091"></path></svg>