<svg t="1688397299551" class="icon" viewBox="0 0 1024 1024" version="1.1" xmlns="http://www.w3.org/2000/svg" p-id="2896" width="200" height="200"><path d="M701.59 880.36H349.91c-23.02 0-44.43-12.3-55.9-32.12l-176.09-304.3c-11.4-19.69-11.4-44.18 0.02-63.9l176.08-304.28c11.46-19.81 32.89-32.13 55.9-32.13H701.6c22.98 0 44.39 12.3 55.88 32.1l176.11 304.32c11.39 19.71 11.39 44.17 0 63.86L757.48 848.24c-11.49 19.83-32.9 32.12-55.89 32.12zM349.91 207.71L173.38 512.16l176.1 303.99-27.73 16.05 27.73-16.04c0 0.01 0.14 0.15 0.44 0.15H701.6l176.53-304.45-176.1-303.99-352.12-0.16z m0 0" fill="#3D6AB2" opacity=".8" p-id="2897"></path><path d="M89.85 290.26m-26.03 0a26.03 26.03 0 1 0 52.06 0 26.03 26.03 0 1 0-52.06 0Z" fill="#4D73B6" opacity=".8" p-id="2898"></path><path d="M135.4 192.23m-26.03 0a26.03 26.03 0 1 0 52.06 0 26.03 26.03 0 1 0-52.06 0Z" fill="#44BDDC" opacity=".8" p-id="2899"></path><path d="M934.15 237.78m-26.03 0a26.03 26.03 0 1 0 52.06 0 26.03 26.03 0 1 0-52.06 0Z" fill="#4D73B6" opacity=".8" p-id="2900"></path><path d="M358.95 185.22c0 18.24-14.11 33.04-31.52 33.04-17.42 0-31.52-14.8-31.52-33.04 0-18.25 14.1-33.04 31.52-33.04 17.41 0.01 31.52 14.79 31.52 33.04zM174.03 504.69c0 17.68-14.48 32.02-32.33 32.02-17.86 0-32.33-14.35-32.33-32.02 0-17.69 14.47-32.02 32.33-32.02 17.85-0.01 32.33 14.33 32.33 32.02zM942.12 514.45c0 17.68-14.48 32.02-32.33 32.02-17.86 0-32.33-14.35-32.33-32.02 0-17.69 14.47-32.02 32.33-32.02 17.85 0 32.33 14.33 32.33 32.02zM750.19 180.89c0 18.24-14.11 33.04-31.52 33.04-17.42 0-31.52-14.8-31.52-33.04 0-18.25 14.1-33.04 31.52-33.04 17.41 0 31.52 14.79 31.52 33.04zM364.35 842.98c0 18.24-14.11 33.04-31.52 33.04-17.42 0-31.52-14.8-31.52-33.04 0-18.25 14.1-33.04 31.52-33.04 17.41 0.01 31.52 14.79 31.52 33.04zM746.92 844.46c0 18.33-13.56 33.2-30.3 33.2-16.74 0-30.3-14.87-30.3-33.2 0-18.35 13.56-33.21 30.3-33.21 16.73 0 30.3 14.86 30.3 33.21z" fill="#3D6AB2" opacity=".8" p-id="2901"></path><path d="M525.74 664.15c-83.89 0-152.15-68.26-152.15-152.14 0-83.9 68.26-152.16 152.15-152.16 83.9 0 152.15 68.26 152.15 152.16 0 83.88-68.25 152.14-152.15 152.14z m0-224.22c-39.74 0-72.07 32.33-72.07 72.08 0 39.74 32.33 72.07 72.07 72.07 39.75 0 72.07-32.33 72.07-72.07 0-39.75-32.33-72.08-72.07-72.08z m0 0" fill="#44BDDC" opacity=".8" p-id="2902"></path></svg>