<svg t="1688397163748" class="icon" viewBox="0 0 1024 1024" version="1.1" xmlns="http://www.w3.org/2000/svg" p-id="2415" width="200" height="200"><path d="M93.69 405.28m-28.02 0a28.02 28.02 0 1 0 56.04 0 28.02 28.02 0 1 0-56.04 0Z" fill="#4D73B6" opacity=".8" p-id="2416"></path><path d="M142.72 299.77m-28.02 0a28.02 28.02 0 1 0 56.04 0 28.02 28.02 0 1 0-56.04 0Z" fill="#44BDDC" opacity=".8" p-id="2417"></path><path d="M855.41 264.74m-28.02 0a28.02 28.02 0 1 0 56.04 0 28.02 28.02 0 1 0-56.04 0Z" fill="#4D73B6" opacity=".8" p-id="2418"></path><path d="M601.64 409.56c-84.74 0-153.66-68.94-153.66-153.66s68.92-153.66 153.66-153.66S755.3 171.18 755.3 255.9s-68.93 153.66-153.66 153.66z m0-239.03c-47.07 0-85.37 38.3-85.37 85.36 0 47.07 38.3 85.37 85.37 85.37 47.07 0 85.36-38.3 85.36-85.37 0-47.06-38.3-85.36-85.36-85.36z m204.88 751.24c-84.74 0-153.66-68.93-153.66-153.67 0-84.73 68.93-153.66 153.66-153.66 84.73 0 153.66 68.93 153.66 153.66 0 84.74-68.92 153.67-153.66 153.67z m0-239.03c-47.07 0-85.37 38.3-85.37 85.36 0 47.08 38.3 85.38 85.37 85.38 47.07 0 85.36-38.3 85.36-85.38 0.01-47.07-38.29-85.36-85.36-85.36z m0 0" fill="#3D6AB2" opacity=".8" p-id="2419"></path><path d="M294.33 580.29c-9.2 0-18.37-3.69-25.11-10.99-12.79-13.85-11.93-35.45 1.93-48.25l221.97-204.88c13.87-12.78 35.46-11.91 48.25 1.94 12.78 13.85 11.92 35.46-1.94 48.25L317.47 571.24a34.047 34.047 0 0 1-23.14 9.05z m392.71 221.97c-2.8 0-5.6-0.35-8.32-1.03l-341.48-85.37c-18.29-4.58-29.41-23.11-24.84-41.41 4.58-18.31 23.14-29.36 41.42-24.85l341.47 85.36c18.29 4.58 29.41 23.12 24.84 41.41-3.88 15.53-17.81 25.89-33.09 25.89z m0 0" fill="#3D6AB2" opacity=".8" p-id="2420"></path><path d="M226.02 810.78c-89.43 0-162.2-72.76-162.2-162.19 0-89.44 72.77-162.2 162.2-162.2 89.44 0 162.2 72.76 162.2 162.2-0.01 89.43-72.77 162.19-162.2 162.19z m0-239.02c-42.37 0-76.83 34.46-76.83 76.83 0 42.36 34.46 76.83 76.83 76.83s76.83-34.47 76.83-76.83c0-42.37-34.47-76.83-76.83-76.83z m0 0" fill="#44BDDC" opacity=".8" p-id="2421"></path></svg>